<svg width="54" height="54" viewBox="0 0 54 54" fill="none" xmlns="http://www.w3.org/2000/svg">
<circle cx="27" cy="27" r="27" fill="#F1F1F1"/>
<path fill-rule="evenodd" clip-rule="evenodd" d="M25.8999 33C26.1554 33 26.4092 32.873 26.5824 32.627L30.8069 26.627C31.0677 26.256 31.0642 25.726 30.7973 25.36L26.4223 19.36C26.1134 18.936 25.5613 18.879 25.1894 19.232C24.8184 19.585 24.7685 20.216 25.0783 20.64L28.9939 26.011L25.2183 31.373C24.9155 31.803 24.975 32.433 25.3522 32.779C25.5132 32.928 25.7074 33 25.8999 33" fill="#151515"/>
<mask id="mask0_2:319" style="mask-type:alpha" maskUnits="userSpaceOnUse" x="24" y="19" width="7" height="14">
<path fill-rule="evenodd" clip-rule="evenodd" d="M25.8999 33C26.1554 33 26.4092 32.873 26.5824 32.627L30.8069 26.627C31.0677 26.256 31.0642 25.726 30.7973 25.36L26.4223 19.36C26.1134 18.936 25.5613 18.879 25.1894 19.232C24.8184 19.585 24.7685 20.216 25.0783 20.64L28.9939 26.011L25.2183 31.373C24.9155 31.803 24.975 32.433 25.3522 32.779C25.5132 32.928 25.7074 33 25.8999 33" fill="white"/>
</mask>
<g mask="url(#mask0_2:319)">
<rect width="21" height="24" transform="matrix(-1 0 0 1 38 14)" fill="#151515"/>
</g>
</svg>
